<mxfile host="65bd71144e">
    <diagram id="piDafpqhtRUU5qUU-vj8" name="Page-1">
        <mxGraphModel dx="1792" dy="782" grid="1" gridSize="10" guides="1" tooltips="1" connect="1" arrows="1" fold="1" page="1" pageScale="1" pageWidth="827" pageHeight="1169" math="0" shadow="0">
            <root>
                <mxCell id="0"/>
                <mxCell id="1" parent="0"/>
                <mxCell id="8962rQQDY3VNNf6We3Pp-1" value="" style="strokeWidth=1;shadow=0;dashed=0;align=center;html=1;shape=mxgraph.mockup.containers.browserWindow;rSize=0;strokeColor2=#008cff;strokeColor3=#c4c4c4;mainText=,;recursiveResize=0;strokeColor=#FFFFFF;fontColor=#FFFFFF;" parent="1" vertex="1">
                    <mxGeometry x="10" y="10" width="1150" height="1330" as="geometry"/>
                </mxCell>
                <mxCell id="8962rQQDY3VNNf6We3Pp-2" value="Page 1" style="strokeWidth=1;shadow=0;dashed=0;align=center;html=1;shape=mxgraph.mockup.containers.anchor;fontSize=17;fontColor=#666666;align=left;" parent="8962rQQDY3VNNf6We3Pp-1" vertex="1">
                    <mxGeometry x="60" y="12" width="110" height="26" as="geometry"/>
                </mxCell>
                <mxCell id="8962rQQDY3VNNf6We3Pp-3" value="https://www.example.com" style="strokeWidth=1;shadow=0;dashed=0;align=center;html=1;shape=mxgraph.mockup.containers.anchor;rSize=0;fontSize=17;fontColor=#666666;align=left;" parent="8962rQQDY3VNNf6We3Pp-1" vertex="1">
                    <mxGeometry x="130" y="60" width="250" height="26" as="geometry"/>
                </mxCell>
                <mxCell id="8962rQQDY3VNNf6We3Pp-12" value="Security" style="rounded=1;fillColor=#F1F2F4;strokeColor=none;html=1;fontColor=#596780;align=left;fontSize=10;spacingLeft=10" parent="8962rQQDY3VNNf6We3Pp-1" vertex="1">
                    <mxGeometry x="20" y="190" width="90" height="33" as="geometry"/>
                </mxCell>
                <mxCell id="8962rQQDY3VNNf6We3Pp-13" value="" style="shape=triangle;direction=south;fillColor=#596780;strokeColor=none;html=1" parent="8962rQQDY3VNNf6We3Pp-12" vertex="1">
                    <mxGeometry x="1" y="0.5" width="12" height="6" relative="1" as="geometry">
                        <mxPoint x="-20" y="-3" as="offset"/>
                    </mxGeometry>
                </mxCell>
                <mxCell id="8962rQQDY3VNNf6We3Pp-14" value="Upload" style="rounded=1;align=center;strokeColor=none;html=1;fontColor=#ffffff;fontSize=16;fillColor=#008CFF;fontStyle=1" parent="8962rQQDY3VNNf6We3Pp-1" vertex="1">
                    <mxGeometry x="170" y="118.75" width="96" height="39.5" as="geometry"/>
                </mxCell>
                <mxCell id="8962rQQDY3VNNf6We3Pp-16" value="Wardriving Mapper&lt;br&gt;" style="text;html=1;strokeColor=none;fillColor=none;align=center;verticalAlign=middle;whiteSpace=wrap;rounded=0;fontSize=13;fontColor=#0066CC;" parent="8962rQQDY3VNNf6We3Pp-1" vertex="1">
                    <mxGeometry x="10" y="127" width="120" height="20" as="geometry"/>
                </mxCell>
                <mxCell id="8962rQQDY3VNNf6We3Pp-35" value="" style="verticalLabelPosition=bottom;shadow=0;dashed=0;align=center;html=1;verticalAlign=top;strokeWidth=1;shape=mxgraph.mockup.markup.line;strokeColor=#999999;fillColor=#008CFF;fontSize=13;fontColor=#0066CC;" parent="8962rQQDY3VNNf6We3Pp-1" vertex="1">
                    <mxGeometry y="1180" width="1150" height="20" as="geometry"/>
                </mxCell>
                <mxCell id="8962rQQDY3VNNf6We3Pp-36" value="" style="shape=image;html=1;verticalAlign=top;verticalLabelPosition=bottom;labelBackgroundColor=#ffffff;imageAspect=0;aspect=fixed;image=https://cdn3.iconfinder.com/data/icons/peelicons-vol-1/50/LinkedIn-128.png;fillColor=#008CFF;fontSize=13;fontColor=#0066CC;" parent="8962rQQDY3VNNf6We3Pp-1" vertex="1">
                    <mxGeometry x="870" y="1235" width="30" height="30" as="geometry"/>
                </mxCell>
                <mxCell id="8962rQQDY3VNNf6We3Pp-37" value="" style="shape=image;html=1;verticalAlign=top;verticalLabelPosition=bottom;labelBackgroundColor=#ffffff;imageAspect=0;aspect=fixed;image=https://cdn3.iconfinder.com/data/icons/peelicons-vol-1/50/Facebook-128.png;fillColor=#008CFF;fontSize=13;fontColor=#0066CC;" parent="8962rQQDY3VNNf6We3Pp-1" vertex="1">
                    <mxGeometry x="920" y="1235" width="30" height="30" as="geometry"/>
                </mxCell>
                <mxCell id="8962rQQDY3VNNf6We3Pp-38" value="" style="shape=image;html=1;verticalAlign=top;verticalLabelPosition=bottom;labelBackgroundColor=#ffffff;imageAspect=0;aspect=fixed;image=https://cdn3.iconfinder.com/data/icons/peelicons-vol-1/50/Twitter-128.png;fillColor=#008CFF;fontSize=13;fontColor=#0066CC;" parent="8962rQQDY3VNNf6We3Pp-1" vertex="1">
                    <mxGeometry x="970" y="1235" width="30" height="30" as="geometry"/>
                </mxCell>
                <mxCell id="dJ0W-C5eMbom-Qk9ZyAU-2" value="" style="verticalLabelPosition=bottom;shadow=0;dashed=0;align=center;html=1;verticalAlign=top;strokeWidth=1;shape=mxgraph.mockup.misc.map;" parent="8962rQQDY3VNNf6We3Pp-1" vertex="1">
                    <mxGeometry x="300" y="170" width="850" height="450" as="geometry"/>
                </mxCell>
                <mxCell id="dJ0W-C5eMbom-Qk9ZyAU-4" value="&lt;h1&gt;&lt;span style=&quot;font-size: 20px;&quot;&gt;.kismet&lt;/span&gt;&lt;/h1&gt;" style="text;html=1;strokeColor=none;fillColor=none;spacing=5;spacingTop=-20;whiteSpace=wrap;overflow=hidden;rounded=0;" parent="8962rQQDY3VNNf6We3Pp-1" vertex="1">
                    <mxGeometry x="270" y="121.75" width="87.5" height="36.5" as="geometry"/>
                </mxCell>
                <mxCell id="dJ0W-C5eMbom-Qk9ZyAU-5" value="" style="shape=image;html=1;verticalAlign=top;verticalLabelPosition=bottom;labelBackgroundColor=#ffffff;imageAspect=0;aspect=fixed;image=https://cdn1.iconfinder.com/data/icons/unicons-line-vol-4/24/map-marker-128.png;fontSize=16;" parent="8962rQQDY3VNNf6We3Pp-1" vertex="1">
                    <mxGeometry x="725" y="400" width="48" height="48" as="geometry"/>
                </mxCell>
                <mxCell id="dJ0W-C5eMbom-Qk9ZyAU-6" value="" style="shape=image;html=1;verticalAlign=top;verticalLabelPosition=bottom;labelBackgroundColor=#ffffff;imageAspect=0;aspect=fixed;image=https://cdn1.iconfinder.com/data/icons/unicons-line-vol-4/24/map-marker-128.png;fontSize=16;" parent="8962rQQDY3VNNf6We3Pp-1" vertex="1">
                    <mxGeometry x="769" y="340" width="48" height="48" as="geometry"/>
                </mxCell>
                <mxCell id="dJ0W-C5eMbom-Qk9ZyAU-7" value="" style="shape=image;html=1;verticalAlign=top;verticalLabelPosition=bottom;labelBackgroundColor=#ffffff;imageAspect=0;aspect=fixed;image=https://cdn1.iconfinder.com/data/icons/unicons-line-vol-4/24/map-marker-128.png;fontSize=16;" parent="8962rQQDY3VNNf6We3Pp-1" vertex="1">
                    <mxGeometry x="630" y="250" width="48" height="48" as="geometry"/>
                </mxCell>
                <mxCell id="dJ0W-C5eMbom-Qk9ZyAU-8" value="" style="shape=image;html=1;verticalAlign=top;verticalLabelPosition=bottom;labelBackgroundColor=#ffffff;imageAspect=0;aspect=fixed;image=https://cdn1.iconfinder.com/data/icons/unicons-line-vol-4/24/map-marker-128.png;fontSize=16;" parent="8962rQQDY3VNNf6We3Pp-1" vertex="1">
                    <mxGeometry x="770" y="460" width="48" height="48" as="geometry"/>
                </mxCell>
                <mxCell id="dJ0W-C5eMbom-Qk9ZyAU-9" value="SSID: myNetwork" style="swimlane;fontStyle=0;childLayout=stackLayout;horizontal=1;startSize=30;horizontalStack=0;resizeParent=1;resizeParentMax=0;resizeLast=0;collapsible=1;marginBottom=0;fontSize=16;" parent="8962rQQDY3VNNf6We3Pp-1" vertex="1">
                    <mxGeometry x="20" y="250" width="270" height="90" as="geometry">
                        <mxRectangle x="20" y="250" width="160" height="30" as="alternateBounds"/>
                    </mxGeometry>
                </mxCell>
                <mxCell id="dJ0W-C5eMbom-Qk9ZyAU-10" value="MAC: FF:FF:FF:FF:FF" style="text;strokeColor=none;fillColor=none;align=left;verticalAlign=middle;spacingLeft=4;spacingRight=4;overflow=hidden;points=[[0,0.5],[1,0.5]];portConstraint=eastwest;rotatable=0;fontSize=16;" parent="dJ0W-C5eMbom-Qk9ZyAU-9" vertex="1">
                    <mxGeometry y="30" width="270" height="30" as="geometry"/>
                </mxCell>
                <mxCell id="dJ0W-C5eMbom-Qk9ZyAU-11" value="SEC: WPA" style="text;strokeColor=none;fillColor=none;align=left;verticalAlign=middle;spacingLeft=4;spacingRight=4;overflow=hidden;points=[[0,0.5],[1,0.5]];portConstraint=eastwest;rotatable=0;fontSize=16;" parent="dJ0W-C5eMbom-Qk9ZyAU-9" vertex="1">
                    <mxGeometry y="60" width="270" height="30" as="geometry"/>
                </mxCell>
                <mxCell id="dJ0W-C5eMbom-Qk9ZyAU-15" value="FREQ: 2.247 ghz" style="rounded=0;whiteSpace=wrap;html=1;fontSize=16;align=left;" parent="8962rQQDY3VNNf6We3Pp-1" vertex="1">
                    <mxGeometry x="20" y="340" width="270" height="50" as="geometry"/>
                </mxCell>
                <mxCell id="dJ0W-C5eMbom-Qk9ZyAU-16" value="LOC:&amp;nbsp;&lt;span style=&quot;font-family: Consolas, &amp;quot;Courier New&amp;quot;, monospace; background-color: rgb(255, 255, 255);&quot;&gt;&lt;font color=&quot;#1a1a1a&quot; style=&quot;font-size: 16px;&quot;&gt;45.44649923,-71.957632105&lt;/font&gt;&lt;/span&gt;" style="rounded=0;whiteSpace=wrap;html=1;fontSize=16;align=left;" parent="8962rQQDY3VNNf6We3Pp-1" vertex="1">
                    <mxGeometry x="20" y="388" width="270" height="50" as="geometry"/>
                </mxCell>
                <mxCell id="dJ0W-C5eMbom-Qk9ZyAU-17" value="TIME: 22 may 2022 18:11:35" style="rounded=0;whiteSpace=wrap;html=1;fontSize=16;align=left;" parent="8962rQQDY3VNNf6We3Pp-1" vertex="1">
                    <mxGeometry x="20" y="438" width="270" height="50" as="geometry"/>
                </mxCell>
                <mxCell id="dJ0W-C5eMbom-Qk9ZyAU-18" value="" style="verticalLabelPosition=bottom;shadow=0;dashed=0;align=center;html=1;verticalAlign=top;strokeWidth=1;shape=mxgraph.mockup.navigation.mapNavigator;fillColor2=#99ddff;strokeColor2=none;strokeColor3=#ffffff;strokeColor=#999999;labelBackgroundColor=#FFFFFF;fontSize=16;fontColor=#1A1A1A;" parent="8962rQQDY3VNNf6We3Pp-1" vertex="1">
                    <mxGeometry x="1080" y="508" width="60" height="100" as="geometry"/>
                </mxCell>
                <mxCell id="dJ0W-C5eMbom-Qk9ZyAU-19" value="DATA: 15557bytes" style="rounded=0;whiteSpace=wrap;html=1;fontSize=16;align=left;" parent="8962rQQDY3VNNf6We3Pp-1" vertex="1">
                    <mxGeometry x="20" y="488" width="270" height="50" as="geometry"/>
                </mxCell>
                <mxCell id="dJ0W-C5eMbom-Qk9ZyAU-20" value="" style="rounded=0;whiteSpace=wrap;html=1;fontSize=16;align=left;" parent="8962rQQDY3VNNf6We3Pp-1" vertex="1">
                    <mxGeometry x="20" y="538" width="270" height="50" as="geometry"/>
                </mxCell>
                <mxCell id="dJ0W-C5eMbom-Qk9ZyAU-53" value="Show Packets" style="rounded=1;align=center;strokeColor=#82b366;html=1;fontSize=16;fillColor=#d5e8d4;fontStyle=1" parent="8962rQQDY3VNNf6We3Pp-1" vertex="1">
                    <mxGeometry x="40" y="543.25" width="170" height="39.5" as="geometry"/>
                </mxCell>
                <mxCell id="dJ0W-C5eMbom-Qk9ZyAU-55" value="" style="shape=singleArrow;direction=south;whiteSpace=wrap;html=1;labelBackgroundColor=none;fontSize=16;fillColor=#d5e8d4;strokeColor=#82b366;" parent="8962rQQDY3VNNf6We3Pp-1" vertex="1">
                    <mxGeometry x="230" y="550" width="30" height="30" as="geometry"/>
                </mxCell>
                <mxCell id="dJ0W-C5eMbom-Qk9ZyAU-59" value="&lt;table border=&quot;1&quot; width=&quot;100%&quot; height=&quot;100%&quot; cellpadding=&quot;4&quot; style=&quot;width:100%;height:100%;border-collapse:collapse;&quot;&gt;&lt;tbody&gt;&lt;tr style=&quot;background-color:#A7C942;color:#ffffff;border:1px solid #98bf21;&quot;&gt;&lt;th align=&quot;left&quot;&gt;source_mac&lt;/th&gt;&lt;th align=&quot;left&quot;&gt;dest_mac&lt;/th&gt;&lt;th align=&quot;left&quot;&gt;transmac&lt;/th&gt;&lt;/tr&gt;&lt;tr style=&quot;border:1px solid #98bf21;&quot;&gt;&lt;td&gt;Value 1&lt;/td&gt;&lt;td&gt;Value 2&lt;/td&gt;&lt;td&gt;Value 3&lt;/td&gt;&lt;/tr&gt;&lt;tr style=&quot;background-color:#EAF2D3;border:1px solid #98bf21;&quot;&gt;&lt;td&gt;Value 4&lt;/td&gt;&lt;td&gt;Value 5&lt;/td&gt;&lt;td&gt;Value 6&lt;/td&gt;&lt;/tr&gt;&lt;tr style=&quot;border:1px solid #98bf21;&quot;&gt;&lt;td&gt;Value 7&lt;/td&gt;&lt;td&gt;Value 8&lt;/td&gt;&lt;td&gt;Value 9&lt;/td&gt;&lt;/tr&gt;&lt;tr style=&quot;background-color:#EAF2D3;border:1px solid #98bf21;&quot;&gt;&lt;td&gt;Value 10&lt;/td&gt;&lt;td&gt;Value 11&lt;/td&gt;&lt;td&gt;Value 12&lt;/td&gt;&lt;/tr&gt;&lt;/tbody&gt;&lt;/table&gt;" style="text;html=1;strokeColor=#c0c0c0;fillColor=#ffffff;overflow=fill;rounded=0;labelBackgroundColor=none;fontSize=16;fontColor=#67AB9F;" parent="8962rQQDY3VNNf6We3Pp-1" vertex="1">
                    <mxGeometry x="20" y="670" width="370" height="480" as="geometry"/>
                </mxCell>
                <mxCell id="dJ0W-C5eMbom-Qk9ZyAU-62" value="&lt;table border=&quot;1&quot; width=&quot;100%&quot; height=&quot;100%&quot; cellpadding=&quot;4&quot; style=&quot;width:100%;height:100%;border-collapse:collapse;&quot;&gt;&lt;tbody&gt;&lt;tr style=&quot;background-color:#A7C942;color:#ffffff;border:1px solid #98bf21;&quot;&gt;&lt;th align=&quot;left&quot;&gt;Freq&lt;/th&gt;&lt;th align=&quot;left&quot;&gt;devkey&lt;/th&gt;&lt;th align=&quot;left&quot;&gt;location&lt;/th&gt;&lt;/tr&gt;&lt;tr style=&quot;border:1px solid #98bf21;&quot;&gt;&lt;td&gt;Value 1&lt;/td&gt;&lt;td&gt;Value 2&lt;/td&gt;&lt;td&gt;Value 3&lt;/td&gt;&lt;/tr&gt;&lt;tr style=&quot;background-color:#EAF2D3;border:1px solid #98bf21;&quot;&gt;&lt;td&gt;Value 4&lt;/td&gt;&lt;td&gt;Value 5&lt;/td&gt;&lt;td&gt;Value 6&lt;/td&gt;&lt;/tr&gt;&lt;tr style=&quot;border:1px solid #98bf21;&quot;&gt;&lt;td&gt;Value 7&lt;/td&gt;&lt;td&gt;Value 8&lt;/td&gt;&lt;td&gt;Value 9&lt;/td&gt;&lt;/tr&gt;&lt;tr style=&quot;background-color:#EAF2D3;border:1px solid #98bf21;&quot;&gt;&lt;td&gt;Value 10&lt;/td&gt;&lt;td&gt;Value 11&lt;/td&gt;&lt;td&gt;Value 12&lt;/td&gt;&lt;/tr&gt;&lt;/tbody&gt;&lt;/table&gt;" style="text;html=1;strokeColor=#c0c0c0;fillColor=#ffffff;overflow=fill;rounded=0;labelBackgroundColor=none;fontSize=16;fontColor=#67AB9F;" parent="8962rQQDY3VNNf6We3Pp-1" vertex="1">
                    <mxGeometry x="390" y="670" width="370" height="480" as="geometry"/>
                </mxCell>
                <mxCell id="dJ0W-C5eMbom-Qk9ZyAU-63" value="&lt;table border=&quot;1&quot; width=&quot;100%&quot; height=&quot;100%&quot; cellpadding=&quot;4&quot; style=&quot;width:100%;height:100%;border-collapse:collapse;&quot;&gt;&lt;tbody&gt;&lt;tr style=&quot;background-color:#A7C942;color:#ffffff;border:1px solid #98bf21;&quot;&gt;&lt;th align=&quot;left&quot;&gt;signal&lt;/th&gt;&lt;th align=&quot;left&quot;&gt;dlt&lt;/th&gt;&lt;th align=&quot;left&quot;&gt;error&lt;/th&gt;&lt;/tr&gt;&lt;tr style=&quot;border:1px solid #98bf21;&quot;&gt;&lt;td&gt;Value 1&lt;/td&gt;&lt;td&gt;Value 2&lt;/td&gt;&lt;td&gt;Value 3&lt;/td&gt;&lt;/tr&gt;&lt;tr style=&quot;background-color:#EAF2D3;border:1px solid #98bf21;&quot;&gt;&lt;td&gt;Value 4&lt;/td&gt;&lt;td&gt;Value 5&lt;/td&gt;&lt;td&gt;Value 6&lt;/td&gt;&lt;/tr&gt;&lt;tr style=&quot;border:1px solid #98bf21;&quot;&gt;&lt;td&gt;Value 7&lt;/td&gt;&lt;td&gt;Value 8&lt;/td&gt;&lt;td&gt;Value 9&lt;/td&gt;&lt;/tr&gt;&lt;tr style=&quot;background-color:#EAF2D3;border:1px solid #98bf21;&quot;&gt;&lt;td&gt;Value 10&lt;/td&gt;&lt;td&gt;Value 11&lt;/td&gt;&lt;td&gt;Value 12&lt;/td&gt;&lt;/tr&gt;&lt;/tbody&gt;&lt;/table&gt;" style="text;html=1;strokeColor=#c0c0c0;fillColor=#ffffff;overflow=fill;rounded=0;labelBackgroundColor=none;fontSize=16;fontColor=#67AB9F;" parent="8962rQQDY3VNNf6We3Pp-1" vertex="1">
                    <mxGeometry x="760" y="670" width="370" height="480" as="geometry"/>
                </mxCell>
            </root>
        </mxGraphModel>
    </diagram>
</mxfile>